<svg version="1.1" id="Layer_1" xmlns="http://www.w3.org/2000/svg" xmlns:xlink="http://www.w3.org/1999/xlink" x="0" y="0" viewBox="0 0 611.18 296.24" xml:space="preserve"><style>.st15{fill:#e9e8e8}.st16{fill:#f48920}.st17{opacity:.5}.st21{fill:#fff}.st22{fill:#bcd648}.st24{fill:#323757}.st27{fill:#e0e1e0}.st28{fill:#2274b5}.st29{fill:#65a8dc}.st30{fill:#6d8ec9}.st31{fill:#d9d9d8}.st32{fill:#1a5a8d}.st33{fill:#2a2c47}.st34{fill:#efa986}.st35{fill:#434873}.st36{fill:#3b4048}.st37{fill:#252840}.st38{fill:#efaa87}.st39{fill:#373b5e}.st43{fill:#4a5181}.st45{fill:#a1a0a0}.st46{fill:#fae6dd}.st47{fill:#d6c5be}.st51{fill:#62a9dc}.st53{fill:#c5ccd1}.st54{enable-background:new}.st57{fill:#aeaeae}</style><path d="M4.96 215.91c.03 1.29.05 2.58.13 3.84.05 1.26.11 2.5.21 3.76.37 5.42 1.03 10.67 1.89 15.69.26 1.5.53 2.97.81 4.42.05.34.13.68.18 1l.05.18c.18.89.37 1.76.55 2.65.34 1.55.71 3.1 1.08 4.6.08.29.16.55.21.84 1 3.94 2.08 7.65 3.21 11.12.18.58.37 1.16.55 1.73.5 1.52 1 2.97 1.5 4.39.37 1.03.74 2 1.08 2.94 1.92 5.1 3.79 9.33 5.28 12.54 1.39 2.97 2.58 5.47 3.18 6.73.26.55.42.87.42.87s291.44.05 452.31.08h103.67c0-.03.03-.03.03-.03.37-.29.71-.55 1.05-.84h.03c.16-.13.32-.24.45-.37l7.65-8.28c1.68-2.39 3.05-4.94 4.1-7.6 2.02-4.94 3-10.3 3-15.9 0-.26 0-.55-.03-.84 0-.5-.03-1.03-.03-1.52-.03-.45-.05-.89-.08-1.34-.13-1.63-.32-3.26-.58-4.89 0-.05-.03-.11-.03-.16-.05-.26-.11-.55-.13-.84-.05-.34-.13-.68-.21-1.03a73.38 73.38 0 00-.84-3.65c-.05-.29-.13-.58-.21-.87-.11-.34-.18-.68-.32-1.03-.29-1.08-.66-2.16-1.03-3.26-.71-2.1-1.55-4.21-2.5-6.34-.05-.16-.13-.34-.21-.5-.87-1.92-1.81-3.81-2.84-5.73-1.55-2.89-3.31-5.76-5.23-8.6-.42-.6-.84-1.21-1.26-1.79-2.13-3.02-4.47-5.99-7.02-8.91-3.08-3.55-6.44-7.05-10.07-10.41-.81-.76-1.63-1.5-2.44-2.23-.18-.16-.37-.32-.55-.5-.47-.39-.95-.82-1.42-1.21-2-1.74-3.94-3.37-5.86-4.94-.97-.79-1.92-1.55-2.87-2.31-1.87-1.5-3.68-2.97-5.41-4.39-5.34-4.39-10.07-8.52-13.8-13.17a42.31 42.31 0 01-3.47-4.94 37.51 37.51 0 01-4.26-10.36c-.21-.97-.42-1.97-.58-3-.47-2.79-.71-5.81-.63-9.12.03-2.6.24-5.42.63-8.41.08-.63.18-1.29.29-1.97.55-3.71 1.39-7.73 2.52-12.12.32-1.23.66-2.5 1.03-3.79.63-2.23 1.13-4.44 1.52-6.6.76-4.18 1.08-8.2 1.03-12.12-.03-3.55-.37-6.99-1.03-10.3v-.05c-.58-3.15-1.42-6.2-2.44-9.15-12.59-35.8-55.44-56.96-66.82-61.69-16.2-6.74-35.41-10.52-55.36-11.92a267.044 267.044 0 00-18.77-.63c-1.89 0-3.76.03-5.63.05-3.13.08-6.23.18-9.36.37-2.89.16-5.76.34-8.62.58-11.88 1-23.47 2.68-34.25 4.94-9.8 2.05-18.64 4.63-26.68 7.6l-.03.03c-18.98 7.02-33.33 16.19-44.79 25.73-2.65 2.21-5.18 4.44-7.54 6.68-.32.29-.66.6-.97.92-.74.68-1.45 1.37-2.16 2.08-.32.32-.66.63-.97.95-2.08 2.08-4.07 4.15-5.97 6.18-.95 1.02-1.89 2.05-2.81 3.05-4.99 5.52-9.41 10.67-13.62 15.11-.53.58-1.05 1.1-1.58 1.66-7.23 7.36-13.93 12.36-22.13 12.91-5.15.34-11.17-.53-17.93-1.84-.68-.13-1.34-.26-2.02-.42-10.38-2.08-22.47-5.02-35.91-6.26-17.35-1.6-36.98-.34-58.17 9.28l-2.02.95c-3.1 1.5-6.23 3.15-9.38 5.02-.66.37-1.31.76-1.97 1.16-3.21 1.97-6.47 4.15-9.75 6.57-.08.05-.16.11-.24.18-1.42 1.02-2.84 2.13-4.26 3.26-1.66 1.31-3.34 2.68-5.02 4.13-4.05 3.5-8.18 7.33-12.3 11.59-3 3.08-5.78 6.18-8.31 9.33-1.76 2.16-3.42 4.34-4.94 6.52-.29.39-.55.79-.84 1.18-2.63 3.86-4.99 7.75-7.1 11.67-.24.47-.5.97-.76 1.45-2.76 5.42-5.05 10.86-6.86 16.27-.16.47-.32.92-.47 1.37-.79 2.44-1.47 4.89-2.1 7.33-.84 3.34-1.52 6.65-2.08 9.96-1.43 8.43-1.93 16.73-1.77 24.73z" fill="#eef4fb"/><path d="M3.02 293.29h603.76c.38 0 .7-.31.7-.7v-.24c0-.38-.31-.7-.7-.7H3.02c-.38 0-.7.31-.7.7v.24c0 .38.32.7.7.7z" fill="#2e3652"/><path class="st15" d="M39.13 291.65h33.29c1.78-1.51-1.23-4.95-4.39-5.18-1.37-.1-3.1.18-5.08.6-.46-6.08-3.07-33.44-12.93-32.34-11.09 1.23 0 12.05 3.13 18.45 2.32 4.74 4.77 11.54 5.89 14.75-.9.2-1.83.39-2.78.56-1.47-4.51-6.94-19.69-13.89-18.8-8.16 1.04-4.88 7.12.9 10.73 4.24 2.66 9.46 6.43 11.93 8.25-2.1.34-4.29.57-6.51.52-5.7-.12-8.48 1.56-9.56 2.46zM153.42 290.25c1.56-2.46 6.27-8.83 12.54-7.99 6.83.92-7.54 5.42-11.94 8.01.98.01 1.82-.06 2.43-.28 2.94-1.05 7.98.96 9.59 1.67h-28c.19-.67.7-1.76 2-2.56.46-.28 1.38-.32 2.58-.23-1.66-1.96-2.82-8.23 1.81-6.62 3.39 1.18 3.38 5.01 3.04 7.28.72.11 1.45.23 2.17.33 1.39-7.1 6.32-27.93 16.32-28.48 10.13-.56-8.59 21.59-14.82 28.68.8.08 1.57.16 2.28.19zM572.78 291.65s-9.53-28.43-36.81-33.9c-27.29-5.47-47.49 15.89-71.8 7.57-24.31-8.33-62.64-52.41-108.25-20.19-45.61 32.21-42.62 41.39-71.39 33.86-28.77-7.53-35.35 12.66-35.35 12.66h323.6z"/><path class="st15" d="M544.77 264.91s19.9-20.87 30.07-15.27c10.17 5.59-30.07 15.27-30.07 15.27zM549.84 270.18s18.35-5.98 22.94-2.99c4.6 2.99-22.94 2.99-22.94 2.99zM491.48 268.27s-12.61-28.29-16.98-23.14c-4.38 5.15 16.98 23.14 16.98 23.14zM494.56 266.36s-5.15-20.71 2.57-19.42c7.73 1.28-2.57 19.42-2.57 19.42z"/><g><path class="st16" d="M463.94 59.66L312.7 210.9l-7.44 7.44-15.89 15.89-36.85 36.84-113.76-113.76 27.67-27.67 33.87 33.87 32.56 32.56 19.66 19.66 19.67-19.66L392.02 76.23l44.25-44.25z"/><g class="st17"><path class="st16" d="M538.02 217.87l-25.74 25.73-1.27 1.27-2.7 2.71-6.27 6.27-19.36-19.37 4.71-4.7 5.76 5.76 5.54 5.54 3.35 3.35 3.35-3.35 20.39-20.39 7.53-7.53z"/></g><path class="st16" d="M103.52 159.05l-16.37 16.37-.81.81-1.72 1.72-3.99 3.98-12.31-12.31 2.99-3 3.67 3.67 3.52 3.52 2.13 2.13 2.13-2.13 12.97-12.97 4.79-4.79z" opacity=".2"/><path fill="#e2892a" d="M312.7 184.2v26.7l-7.44 7.44-15.89 15.89V184.2z"/><linearGradient id="SVGID_2_" gradientUnits="userSpaceOnUse" x1="301.034" y1="245.683" x2="301.034" y2="82.609"><stop offset="0" stop-color="#f89e59"/><stop offset="1" stop-color="#ffd356"/></linearGradient><path d="M401.76 86.46v35.37l-96.51 96.51h-94.71c-5.66 0-10.25-4.59-10.25-10.25V86.46c0-5.66 4.59-10.25 10.25-10.25H391.5c.17 0 .33.01.5.01 5.44.27 9.76 4.75 9.76 10.24z" fill="url(#SVGID_2_)"/><path class="st21" d="M393.88 61.09v68.63l-66.35 66.35H208.19V61.09z"/><path transform="rotate(-180 301.033 69.24)" class="st22" d="M208.19 61.09h185.68v16.3H208.19z"/><path d="M240.22 72.32h-22.05a2.21 2.21 0 01-2.21-2.21v-1.73c0-1.22.99-2.21 2.21-2.21h22.05c1.22 0 2.21.99 2.21 2.21v1.73c0 1.22-.99 2.21-2.21 2.21z" fill="#f6f7fb"/><path class="st24" d="M401.91 205.55c.01 0 .01 0 0 0-.03.02-.03.02 0 0z"/><path fill="#d7d6d6" d="M420.94 163.33l18.54-10.36-6.37-.42z"/><path class="st15" d="M420.94 163.33l5.71-9.17 4.78-.13z"/><path fill="#c2c2c2" d="M435.22 155.35l.37 2.34-14.65 5.64z"/><path class="st27" d="M177.89 148.64c-.06-.73-.12-1.46-.17-2.19l.51-.04c.05.72.11 1.45.17 2.18l-.51.05zm262.45-2.31l-.29-.42c.01-.01.9-.62 2.09-1.73l.35.37c-1.22 1.14-2.11 1.75-2.15 1.78zm-262.79-2.62c-.05-.91-.1-1.84-.13-2.74l.51-.02c.04.9.08 1.82.13 2.73l-.51.03zm266.86-1.14l-.38-.33c.61-.7 1.17-1.42 1.67-2.14l.42.29c-.51.73-1.09 1.47-1.71 2.18zm-267.08-4.34c-.02-.91-.04-1.84-.04-2.74h.51c.01.9.02 1.82.04 2.73l-.51.01zm270.2-.24l-.45-.23c.41-.82.76-1.66 1.02-2.5l.48.15c-.27.87-.62 1.74-1.05 2.58zm-269.73-5.24l-.51-.01c.01-.91.03-1.84.05-2.74l.51.01c-.02.91-.04 1.83-.05 2.74zm271.36-.05l-.5-.06c.06-.52.09-1.04.09-1.56 0-.37-.02-.75-.05-1.12l.51-.04c.03.39.05.78.05 1.16-.01.54-.04 1.08-.1 1.62zm-.95-5.38c-.24-.84-.56-1.69-.96-2.52l.46-.22c.41.86.74 1.73.99 2.6l-.49.14zm-270.26-.04l-.51-.02c.04-.91.09-1.84.15-2.74l.51.03-.15 2.73zm267.97-4.83c-.48-.72-1.03-1.45-1.63-2.17l.39-.33c.61.73 1.17 1.47 1.66 2.21l-.42.29zm-267.61-.63l-.51-.04c.08-.91.16-1.83.26-2.73l.5.05c-.09.9-.18 1.82-.25 2.72zm264.14-3.53c-.07-.07-.15-.14-.22-.22a20.53 20.53 0 00-1.8-1.56l.31-.4c.65.5 1.27 1.03 1.85 1.6.08.07.15.15.22.22l-.36.36zm-263.57-1.9l-.5-.06c.11-.91.24-1.82.37-2.72l.5.07c-.14.89-.26 1.8-.37 2.71zm259.31-1.38c-.75-.44-1.56-.85-2.41-1.22l.21-.46c.86.38 1.69.8 2.46 1.25l-.26.43zm-4.94-2.2c-.82-.28-1.67-.54-2.61-.79l.13-.49c.94.25 1.81.51 2.64.8l-.16.48zm-5.26-1.43c-.81-.18-1.68-.36-2.68-.55l.1-.5c1 .19 1.88.37 2.69.55l-.11.5zm-248.32-.4l-.5-.08c.15-.9.32-1.81.49-2.7l.5.1c-.18.88-.34 1.78-.49 2.68zm242.95-.64l-.82-.15c-.62-.11-1.25-.22-1.88-.34l.09-.5c.63.11 1.26.23 1.88.34l.82.15-.09.5zm-5.4-.99c-.97-.19-1.85-.38-2.69-.57l.11-.49c.83.19 1.71.38 2.67.57l-.09.49zm-5.35-1.24c-.91-.25-1.8-.51-2.64-.78l.16-.48c.83.27 1.71.53 2.61.77l-.13.49zm-5.23-1.7c-.87-.34-1.72-.71-2.53-1.09l.22-.46c.8.38 1.64.74 2.49 1.08l-.18.47zm-225.94-.8l-.5-.11c.19-.89.4-1.79.61-2.68l.49.12c-.2.89-.41 1.78-.6 2.67zm220.97-1.57c-.8-.46-1.58-.95-2.33-1.46l.29-.42c.74.5 1.51.99 2.3 1.44l-.26.44zm-4.54-3.1c-.71-.57-1.4-1.18-2.07-1.81l.35-.37c.66.62 1.34 1.22 2.04 1.78l-.32.4zm-215.15-.64l-.49-.13c.23-.88.48-1.77.74-2.64l.49.14c-.26.87-.51 1.75-.74 2.63zm211.15-3.13c-.61-.67-1.2-1.37-1.77-2.1l.4-.31c.56.72 1.15 1.41 1.75 2.07l-.38.34zm-209.62-2.11l-.48-.15c.28-.87.57-1.75.87-2.6l.48.17c-.3.84-.59 1.71-.87 2.58zm206.22-2.2c-.51-.74-1.01-1.52-1.49-2.31l.43-.26c.47.78.97 1.55 1.47 2.28l-.41.29zM185.31 89.9l-.47-.18c.32-.85.66-1.71 1.01-2.55l.47.19c-.35.83-.69 1.69-1.01 2.54zm201.58-1.74c-.42-.79-.84-1.61-1.23-2.45l.46-.22c.39.83.81 1.65 1.22 2.43l-.45.24zm-199.51-3.32l-.46-.2c.37-.84.75-1.68 1.14-2.5l.46.22c-.39.82-.78 1.65-1.14 2.48zm197.15-1.64c-.35-.82-.69-1.68-1.02-2.55l.47-.18c.33.86.67 1.71 1.01 2.53l-.46.2zm-194.81-3.29l-.45-.23c.41-.81.84-1.63 1.28-2.43l.45.24c-.44.8-.87 1.61-1.28 2.42zm192.86-1.84c-.29-.85-.57-1.73-.84-2.61l.49-.15c.27.88.55 1.75.84 2.6l-.49.16zm-190.25-2.95l-.44-.26c.46-.79.94-1.58 1.42-2.35l.43.27c-.47.77-.95 1.55-1.41 2.34zm188.65-2.3c-.24-.86-.47-1.76-.69-2.66l.49-.12c.22.89.45 1.78.69 2.64l-.49.14zm-185.76-2.34l-.42-.28c.5-.76 1.03-1.52 1.55-2.26l.41.29c-.52.74-1.04 1.5-1.54 2.25zm184.4-2.96c-.24-.86-.52-1.73-.83-2.58l.48-.17c.31.86.6 1.74.84 2.62l-.49.13zm-181.25-1.5l-.41-.31c.55-.73 1.11-1.46 1.68-2.17l.4.32c-.56.71-1.12 1.44-1.67 2.16zm179.39-3.6c-.37-.81-.78-1.63-1.21-2.43l.45-.24c.44.81.85 1.64 1.23 2.47l-.47.2zm-175.98-.66l-.39-.33c.59-.69 1.2-1.39 1.81-2.07l.38.34c-.6.68-1.21 1.37-1.8 2.06zm3.66-4.06l-.37-.35c.63-.66 1.28-1.32 1.93-1.96l.36.36c-.65.64-1.29 1.3-1.92 1.95zm169.74-.05c-.48-.76-.99-1.51-1.53-2.25l.41-.3c.54.75 1.06 1.51 1.55 2.28l-.43.27zm-165.86-3.79l-.35-.37c.67-.62 1.35-1.24 2.03-1.84l.34.38c-.67.6-1.35 1.21-2.02 1.83zm162.66-.62c-.57-.69-1.17-1.38-1.79-2.06l.37-.34c.62.68 1.23 1.38 1.8 2.08l-.38.32zm-158.56-2.99l-.32-.39c.7-.58 1.42-1.16 2.14-1.73l.31.4c-.72.57-1.43 1.14-2.13 1.72zm154.88-1.03c-.64-.63-1.31-1.25-1.99-1.86l.34-.38c.69.62 1.36 1.25 2.01 1.88l-.36.36zm-150.59-2.34l-.3-.41c.73-.54 1.48-1.08 2.22-1.6l.29.42c-.74.52-1.48 1.06-2.21 1.59zm146.53-1.29a61.45 61.45 0 00-2.15-1.68l.3-.41c.74.55 1.47 1.12 2.17 1.69l-.32.4zm-142.06-1.83l-.28-.42c.76-.5 1.53-1 2.31-1.48l.27.43c-.78.47-1.55.97-2.3 1.47zm137.69-1.45c-.74-.51-1.5-1.02-2.28-1.51l.27-.43c.78.5 1.55 1.01 2.29 1.52l-.28.42zm-133.06-1.44l-.26-.44c.78-.46 1.58-.92 2.38-1.36l.25.44c-.8.45-1.6.9-2.37 1.36zm128.46-1.49c-.77-.46-1.57-.91-2.37-1.35l.24-.45c.81.44 1.61.9 2.39 1.36l-.26.44zm-123.69-1.16l-.23-.45c.81-.42 1.63-.84 2.45-1.24l.22.46c-.82.4-1.64.81-2.44 1.23zm118.9-1.47c-.8-.41-1.63-.81-2.45-1.2l.22-.46c.83.39 1.66.8 2.47 1.21l-.24.45zm-113.99-.94l-.21-.46c.82-.38 1.67-.76 2.51-1.12l.2.47c-.84.36-1.68.73-2.5 1.11zm109.05-1.39c-.82-.36-1.67-.72-2.52-1.06l.19-.47c.85.35 1.7.71 2.53 1.07l-.2.46zm-104.03-.78l-.19-.47c.84-.34 1.7-.68 2.56-1l.18.47c-.86.32-1.72.66-2.55 1zm98.96-1.29c-.84-.32-1.71-.63-2.57-.94l.17-.48c.86.3 1.73.62 2.58.94l-.18.48zm-93.85-.65l-.17-.48c.86-.3 1.73-.6 2.6-.89l.16.48c-.87.29-1.74.59-2.59.89zm88.69-1.16c-.86-.28-1.74-.55-2.61-.81l.15-.49c.88.26 1.76.54 2.62.82l-.16.48zm-83.49-.55l-.15-.49c.87-.27 1.76-.53 2.64-.77l.14.49c-.88.25-1.77.51-2.63.77zm78.25-1.01c-.87-.24-1.76-.47-2.64-.7l.12-.49c.89.22 1.78.46 2.66.7l-.14.49zm-72.99-.47l-.13-.49c.88-.23 1.77-.45 2.66-.66l.12.49c-.88.21-1.77.43-2.65.66zm67.69-.87c-.88-.2-1.78-.4-2.67-.59l.1-.5c.89.19 1.8.38 2.68.59l-.11.5zm-62.37-.39l-.11-.5c.89-.19 1.79-.38 2.69-.55l.1.5c-.89.17-1.79.35-2.68.55zm57.02-.73c-.89-.17-1.8-.33-2.69-.48l.08-.5c.9.15 1.81.31 2.7.48l-.09.5zm-51.65-.32l-.09-.5c.89-.16 1.8-.31 2.71-.44l.08.5c-.9.14-1.81.28-2.7.44zm46.25-.58c-.9-.13-1.81-.26-2.71-.37l.06-.5c.91.12 1.82.24 2.72.37l-.07.5zm-40.85-.25l-.07-.5c.9-.12 1.82-.24 2.72-.34l.06.5c-.9.1-1.81.22-2.71.34zm35.42-.44c-.9-.1-1.82-.19-2.72-.27l.05-.51c.91.08 1.83.17 2.73.27l-.06.51zm-29.99-.19l-.05-.5c.91-.09 1.82-.17 2.73-.24l.04.51c-.91.06-1.82.14-2.72.23zm24.54-.3c-.9-.06-1.82-.12-2.73-.17l.03-.51c.91.05 1.83.1 2.74.17l-.04.51zm-19.1-.12l-.03-.51c.91-.05 1.83-.1 2.73-.13l.02.51c-.9.03-1.82.08-2.72.13zm13.64-.17c-.91-.03-1.82-.05-2.73-.07l.01-.51c.91.01 1.83.04 2.74.07l-.02.51zm-8.19-.05l-.01-.51c.91-.02 1.83-.03 2.74-.03v.51c-.91 0-1.83.01-2.73.03z"/><path class="st21" d="M478.09 75.14c-6.35-3-13.69-1.41-18.25 3.44a15.649 15.649 0 00-2.78 4.08c-2.2 4.66-1.93 9.85.29 14.09a15.708 15.708 0 008.2 7.36c1.48.58 3 .93 4.51 1.05 6.36.51 12.66-2.88 15.55-8.99 3.73-7.88.37-17.3-7.52-21.03zm3.95 19.34a11.838 11.838 0 01-11.66 6.74c-1.14-.09-2.27-.35-3.38-.79-.24-.1-.49-.2-.73-.32-2.42-1.14-4.27-3-5.42-5.21-1.66-3.18-1.87-7.07-.22-10.56.55-1.15 1.25-2.18 2.08-3.06 3.42-3.64 8.93-4.83 13.69-2.58 5.91 2.81 8.44 9.87 5.64 15.78z"/><path class="st28" d="M460.85 94.91l-3.5 1.83a15.778 15.778 0 01-.29-14.09c.73-1.54 1.67-2.9 2.78-4.08l2.88 2.71c-.83.88-1.54 1.9-2.08 3.06-1.66 3.5-1.45 7.4.21 10.57z"/><path class="st29" d="M467 100.44l-1.45 3.68a15.711 15.711 0 01-8.2-7.36l3.5-1.83c1.15 2.2 3 4.06 5.42 5.21.24.09.49.2.73.3z"/><path class="st29" d="M470.06 105.16c-1.52-.12-3.03-.47-4.51-1.05l1.45-3.68c1.11.44 2.25.7 3.38.79l-.32 3.94z"/><path class="st29" d="M466.48 115.57h-29.49v-.58h28.91v-12.5h.58z"/><path class="st27" d="M436.99 108.89h15.52v3.52h-15.52zM132.57 57.57h3.08V78h-3.08zM140.22 61.73h3.08v16.28h-3.08zM147.87 58.67h3.08V78h-3.08zM155.52 64.7h3.08V78h-3.08zM163.17 59.3h3.08v18.71h-3.08zM170.82 56.48h3.08v21.53h-3.08zM178.47 55.3h3.08V78h-3.08z"/><path class="st30" d="M132.57 65.19h3.08v12.82h-3.08zM140.22 67.79h3.08V78h-3.08zM147.87 65.88h3.08v12.13h-3.08zM155.52 69.66h3.08v8.35h-3.08zM163.17 66.27h3.08v11.74h-3.08zM170.82 64.5h3.08v13.51h-3.08zM178.47 63.76h3.08V78h-3.08z"/><path class="st31" d="M184.14 25.7h17.81v2.57h-17.81zM184.14 30.45h25.26v2.57h-25.26z"/><g><path class="st21" d="M504.16 59.36c-1.79-5.01-6.58-8.09-11.63-7.94-1.22.04-2.46.26-3.67.7a11.972 11.972 0 00-7.4 7.7c-.75 2.4-.76 5.05.16 7.6.09.25.19.5.29.75.48 1.1 1.11 2.1 1.86 2.98 3.13 3.68 8.33 5.24 13.15 3.51 6.22-2.23 9.47-9.08 7.24-15.3zm-8.25 12.48a8.98 8.98 0 01-9.86-2.63 9.096 9.096 0 01-1.39-2.23c-.08-.18-.15-.37-.22-.56-.68-1.91-.68-3.9-.12-5.7a8.98 8.98 0 018.3-6.3c3.78-.11 7.38 2.19 8.72 5.95 1.67 4.66-.76 9.8-5.43 11.47z"/><path class="st32" d="M484.32 60.71l-2.86-.89c1.08-3.46 3.72-6.39 7.4-7.7 1.21-.43 2.45-.66 3.67-.7l.09 3c-.92.03-1.84.2-2.75.52a8.944 8.944 0 00-5.55 5.77z"/><path class="st28" d="M484.66 66.97l-2.75 1.2c-.11-.24-.2-.49-.29-.75-.91-2.55-.91-5.2-.16-7.6l2.86.89c-.56 1.8-.57 3.79.12 5.7.07.19.14.38.22.56z"/><path class="st29" d="M483.77 71.15c-.75-.88-1.38-1.88-1.86-2.98l2.75-1.2c.36.83.83 1.58 1.39 2.23l-2.28 1.95z"/></g><g><path class="st15" d="M242.69 99.41h93.59v3.26h-93.59zM242.69 110.03h93.59v3.26h-93.59zM242.69 120.28h93.59v3.26h-93.59zM242.69 130.9h93.59v3.26h-93.59zM242.69 142.84h93.59v3.26h-93.59zM242.69 153.46h93.59v3.26h-93.59zM242.69 163.71h93.59v3.26h-93.59zM242.69 174.33h93.59v3.26h-93.59z"/><path class="st22" d="M223.86 109.9h8.01c1.46 0 2.64-1.18 2.64-2.64v-8.01c0-1.46-1.18-2.64-2.64-2.64h-8.01c-1.46 0-2.64 1.18-2.64 2.64v8.01c0 1.46 1.18 2.64 2.64 2.64z"/><g><path class="st22" d="M223.86 151.53h8.01c1.46 0 2.64-1.18 2.64-2.64v-8.01c0-1.46-1.18-2.64-2.64-2.64h-8.01c-1.46 0-2.64 1.18-2.64 2.64v8.01c0 1.46 1.18 2.64 2.64 2.64z"/><path class="st21" d="M227.41 148.1l-3.69-3.2a.726.726 0 01-.07-1.02c.26-.3.72-.33 1.02-.07l2.61 2.26 3.7-4.15c.27-.3.72-.32 1.02-.06.3.27.32.72.06 1.02l-4.65 5.22z"/></g><g><path class="st22" d="M223.86 130.63h8.01c1.46 0 2.64-1.18 2.64-2.64v-8.01c0-1.46-1.18-2.64-2.64-2.64h-8.01c-1.46 0-2.64 1.18-2.64 2.64v8.01c0 1.46 1.18 2.64 2.64 2.64z"/><path class="st21" d="M227.41 127.2l-3.69-3.2a.726.726 0 01-.07-1.02c.26-.3.72-.33 1.02-.07l2.61 2.26 3.7-4.15c.27-.3.72-.32 1.02-.06.3.27.32.73.06 1.02l-4.65 5.22z"/><path class="st22" d="M223.86 172.42h8.01c1.46 0 2.64-1.18 2.64-2.64v-8.01c0-1.46-1.18-2.64-2.64-2.64h-8.01c-1.46 0-2.64 1.18-2.64 2.64v8.01c0 1.46 1.18 2.64 2.64 2.64z"/><path class="st21" d="M227.41 168.99l-3.69-3.2a.726.726 0 01-.07-1.02c.26-.3.72-.33 1.02-.07l2.61 2.26 3.7-4.15c.27-.3.72-.32 1.02-.06.3.27.32.72.06 1.02l-4.65 5.22z"/></g><g><path class="st21" d="M226.31 104.27c0-.17.01-.34.03-.49.02-.16.07-.31.13-.45.06-.15.16-.28.28-.41.12-.13.28-.24.47-.35.1-.05.23-.12.39-.21s.32-.19.47-.3c.15-.11.29-.24.4-.39a.81.81 0 00.17-.49.69.69 0 00-.27-.58.989.989 0 00-.62-.21c-.15 0-.28.03-.4.08-.12.06-.22.12-.31.2-.09.08-.17.17-.24.26-.07.1-.13.18-.18.26l-1.16-.81c.19-.46.5-.81.93-1.07.42-.25.9-.38 1.43-.38.28 0 .57.04.85.12a2.041 2.041 0 011.31 1.09c.14.28.21.63.21 1.03 0 .43-.09.78-.26 1.07-.18.29-.44.54-.78.76-.16.1-.32.2-.48.28-.16.08-.31.17-.44.26s-.24.19-.33.3c-.08.11-.12.25-.12.4h-1.48zm.04 2.75v-1.69h1.47v1.69h-1.47z"/></g></g><g><path class="st27" d="M351.53 131.25h-8.68c-.29 0-.53-.24-.53-.53v-1.87c0-.29.24-.53.53-.53h8.68c.29 0 .53.24.53.53v1.87a.52.52 0 01-.53.53zM351.53 138.29h-8.68c-.29 0-.53-.24-.53-.53v-1.87c0-.29.24-.53.53-.53h8.68c.29 0 .53.24.53.53v1.87a.52.52 0 01-.53.53zM351.53 145.33h-8.68c-.29 0-.53-.24-.53-.53v-1.87c0-.29.24-.53.53-.53h8.68c.29 0 .53.24.53.53v1.87a.52.52 0 01-.53.53zM351.53 152.37h-8.68c-.29 0-.53-.24-.53-.53v-1.87c0-.29.24-.53.53-.53h8.68c.29 0 .53.24.53.53v1.87a.52.52 0 01-.53.53zM351.53 159.41h-8.68c-.29 0-.53-.24-.53-.53V157c0-.29.24-.53.53-.53h8.68c.29 0 .53.24.53.53v1.87c.01.3-.23.54-.53.54zM351.53 166.45h-8.68c-.29 0-.53-.24-.53-.53v-1.87c0-.29.24-.53.53-.53h8.68c.29 0 .53.24.53.53v1.87a.52.52 0 01-.53.53z"/></g><g><path class="st27" d="M358.33 131.25h-1.71c-.29 0-.53-.24-.53-.53v-1.87c0-.29.24-.53.53-.53h1.71c.29 0 .53.24.53.53v1.87c0 .29-.24.53-.53.53zM358.33 138.29h-1.71c-.29 0-.53-.24-.53-.53v-1.87c0-.29.24-.53.53-.53h1.71c.29 0 .53.24.53.53v1.87c0 .29-.24.53-.53.53zM358.33 145.33h-1.71c-.29 0-.53-.24-.53-.53v-1.87c0-.29.24-.53.53-.53h1.71c.29 0 .53.24.53.53v1.87c0 .29-.24.53-.53.53zM358.33 152.37h-1.71c-.29 0-.53-.24-.53-.53v-1.87c0-.29.24-.53.53-.53h1.71c.29 0 .53.24.53.53v1.87c0 .29-.24.53-.53.53zM358.33 159.41h-1.71c-.29 0-.53-.24-.53-.53V157c0-.29.24-.53.53-.53h1.71c.29 0 .53.24.53.53v1.87c0 .3-.24.54-.53.54zM358.33 166.45h-1.71c-.29 0-.53-.24-.53-.53v-1.87c0-.29.24-.53.53-.53h1.71c.29 0 .53.24.53.53v1.87c0 .29-.24.53-.53.53z"/></g><g><path class="st33" d="M137.06 177.23l14.04 7.72 14.1-22.19-17.05-5.92z"/><path class="st21" d="M137.95 176.57l13.13 7.21 13.19-20.75-15.95-5.54z"/><path class="st34" d="M133.15 172.68s2.44-1.17 3.52-1.78c1.07-.61 3.83-1.45 4.05-1.65s8.18-.69 8.66-1.11c.48-.42.95.98-1.11 1.43-2.06.45-4.93 1.56-5.09 2.36s2.12 1 2.35 1.66c.23.66-.06.51-.39.66-.33.14-2.71-1.18-3.75-.8-1.05.37-2.65-.14-3.45.13l-4.7 1.59-.09-2.49zM151.79 182.17s2.05-1.85 3.05-2.62c.99-.77 2.86-3.05 3.13-3.18.27-.13 3.84-7.44 4.42-7.73.58-.29-.55-1.28-1.78.49s-3.39 4.04-4.21 3.88c-.82-.17-.11-2.38-.65-2.86s-.51-.14-.77.11.05 3.01-.71 3.85c-.76.84-.89 2.55-1.47 3.2-.57.65-3.33 3.81-3.33 3.81l2.32 1.05z"/><path class="st35" d="M107.57 280.93s-.44 3.08-.5 3.55c-.06.46-4.94-.27-4.94-.27l-.4-3.67c.01-.01 5.23-.05 5.84.39z"/><path class="st33" d="M107.13 284.08s1.55 1.86 3.04 2.67c1.5.81 3.85 1.13 4.73 1.97.64.6 2.33 3.21-3.89 3.16-6.22-.05-9.21.37-9.88-.63-.67-1 .96-7.37.96-7.37s1.48.52 5.04.2z"/><path class="st35" d="M142.57 280.93s-.44 3.08-.5 3.55c-.06.46-4.94-.27-4.94-.27l-.4-3.67c.01-.01 5.23-.05 5.84.39z"/><path class="st33" d="M142.13 284.08s1.55 1.86 3.04 2.67c1.5.81 7.01 1.47 7.89 2.31.64.61 1.7 3.04-7.05 2.81-6.21-.16-9.21.37-9.88-.63-.67-1 .96-7.37.96-7.37s1.4.57 5.04.21zM111.62 201.72s-4.59 7.29-4.25 13.88c.34 6.59-1.66 13.79-2.35 20.67-.77 7.68-3.91 25.85-4.03 29.96-.11 4.11.49 17.22.49 17.22l6.3.14s5.29-31.77 6.66-35.01c1.37-3.24 8.16-26.35 8.39-28.95.22-2.59-11.21-17.91-11.21-17.91z"/><path class="st33" d="M135.78 202.71s3.46 18.07 3.92 22.1c.46 4.03.76 19.52.99 22.05.23 2.52 1.52 33 2.74 36.74h-8.05s-6.18-22.15-6.18-32.64-4.77-22.79-7.86-29.7c-3.08-6.92-10.14-7.08-12.03-19.91 0 0 23.91-2.71 26.47 1.36z"/><path class="st34" d="M119.28 140.41s6.16-2.3 9 2.39c2.84 4.69 2.57 14.08-.54 15.23-3.11 1.15-7.77.55-9.36-2.38-1.59-2.93-3.03-7.18-2.96-10.01.07-2.84 2.24-4.41 3.86-5.23z"/><path class="st34" d="M127.07 158.25s-.26 1.66.17 2.48c.42.82-7.98.84-7.98.84s-.68-4.46-1.98-8.22c-1.29-3.77 9.79 4.9 9.79 4.9z"/><path class="st36" d="M117.28 153.35s.58.96 2.95.59 5.26-3.52 6.25-3.87c.99-.35 1-.93 1-.93l.62.9 1.05.07s-.96-2.82.49-3.97c1.44-1.15-1.5-9.12-9.09-6.47 0 0-5.83 1.61-5.62 4.93.2 3.32 1.05 7.1 2.35 8.75z"/><path class="st21" d="M127.74 160.63s-.03-1.57-.74-1.72c-.71-.15-7.83-.84-8.7-.49v1.82c0 .01 1.68 1.04 9.44.39z"/><path class="st34" d="M127.32 147.93c-.13-.56-1.55-2.15-2.09-.44-.54 1.7.82 3.99 1.58 3.8.75-.2.84-1.95.51-3.36z"/><path class="st24" d="M156.01 179.13H156c.05.02.05.02.01 0zM106.44 219.09s3.78 1.11 10.22 1.82c6.44.71 22.54-.26 22.64-1.02.1-.76-3.46-28.34-3.26-29.76.2-1.42.31-6.48.31-6.48.08 1.39 1.49 7.05 3.2 10.14.62 1.12 2.68 4.61 3.68 3.82 4.82-3.85 12.29-18.36 12.76-18.48-.4-.17-3.54-1.62-3.98-1.77-.39-.13-3.86 3.55-5.97 5.84-.94 1.02-1.61 1.76-1.61 1.76-.61-1.37-2.83-10-3.51-12.98-1.55-6.73-1.31-7.01-1.31-7.01-4.71-1.43-11.87-4.33-11.87-4.33l-9.44-.38s-8.66 1.91-12.08 3.45c-.32.15-.33 7.73-1.21 9.72l2.83 5.97s1.63 11.82 1.97 17.08c.16 2.39-3.37 22.61-3.37 22.61z"/><path class="st24" d="M104.62 183.26c.25.8 1.37 1.47 2.09 1.76.47.19.99.25 1.51.15l.37-.07 6.47-1.2s1.42-16.3-8.84-20.21c-.27.09-3.87 12.27-1.6 19.57z"/><path class="st37" d="M106.71 185.02c.47.19.99.25 1.51.15l.37-.07-.64-8.33-1.24 8.25zM144.44 184.96l.79 3.35s.86-3.36.82-5.11c-.95 1.02-1.61 1.76-1.61 1.76z"/><path class="st36" d="M117.52 140.96s-8.07-.93-.14 12.55l.14-12.55z"/><path class="st33" d="M158.71 161.57l.82-1.41-6.46-2.23-.82 1.4z"/></g><g><path class="st38" d="M318.12 174.34s1.28-1.19 1.03-2.08c-.22-.76.11-1.6.19-1.95.11-.47.15-1.98.5-1.89.59.14.45 2.55.52 3.07.07.51 1.63-1.21 2.16-1.3.53-.09 3.23 2.65 2.03 3.7-1.2 1.06-2.87 1.49-3.04 1.71-.17.23-1 .85-1 .85l-2.39-2.11z"/><path class="st38" d="M322.18 170.37s3.9-2.99 4.33-2.97.58.24.22.53c-.35.29-3.69 3-3.69 3s5.21-2.76 5.57-2.83c.21-.04.36.36.19.53-.17.18-5.03 3.23-5.03 3.23s4.87-2.57 5.18-2.53c.27.03.47.48.12.7-.35.22-4.74 2.86-4.74 2.86s3.66-1.65 3.91-1.46c.15.11.36.36-.6.76s-3.04 1.66-3.04 1.66l-2.42-3.48z"/><path class="st36" d="M291.01 138.26s9.33-.78 9.08 9.04c-.26 9.82-1.81 11.3.01 18.24 1.82 6.94-9.1-3.94-9.1-3.94l.01-23.34z"/><path class="st39" d="M262.58 285.22s-3.47 4.87-2.99 5.64c.48.77 4.12.88 6.34 0 2.22-.88 2.27-6.59 3.28-9.04.42-1.03-.48-4.06-1.74-4.28-1.26-.22-2.64.43-2.64.43s1.3 3.46-2.25 7.25z"/><path class="st34" d="M264.8 277.93s-.73 2.07-1 4.05c-.22 1.64-2.47 5.13-2.36 5.57.11.44 2.96.84 4.12-.3 1.16-1.14 1.91-4.44 2.17-6.42.24-1.84.54-2.75.54-2.75s-2.36-1.36-3.47-.15z"/><path class="st39" d="M292.75 285.3s-3.34 4.79-2.87 5.56c.48.77 4.12.88 6.34 0 2.22-.88 2.27-6.59 3.28-9.04.42-1.03-.48-4.06-1.74-4.28-1.26-.22-2.75.47-2.75.47s1.29 3.5-2.26 7.29z"/><path class="st34" d="M295.01 278.02s-.26 2.26-.69 3.86c-.42 1.6-2.69 5.24-2.59 5.68.11.44 2.96.84 4.12-.3 1.16-1.14 2.06-4.43 2.17-6.42.11-1.99-.26-3.29-.26-3.29s-1.65-.74-2.75.47z"/><path d="M278.31 198.75s-2.97 14.44-3.66 18.07c-.68 3.64-2.6 21.24-2.8 24.24-.2 2.99-3.1 14.27-2.97 15.34.14 1.07-4.71 22.26-4.71 22.26s3.43.37 4.8-.2c.94-.39 8.45-19.51 8.45-24.85 0-7.39 4.13-17.04 4.72-18.72 5.89-16.56 6.97-20.48 7.79-21.48 0 0 .12 1.35.4 3.59.32 2.58 1.73 21.01 2.34 23.43.61 2.42.14 10.62.48 14.75.34 4.13.98 22.99.98 22.99s3.08.13 4.44-.68c.46-.27 2.03-20.26 2.1-25.18.07-4.92.14-11.7.27-13.83 1.27-20.38 4.38-23.29-.52-37.72-9.16-26.99-22.11-2.01-22.11-2.01z" fill="#313757"/><path class="st39" d="M269.29 281.39v5.1h-.63v-3.94zM299.59 281.39v5.1h-.64v-3.94z"/><path class="st34" d="M287.13 164.39s.82-1.93 1.43-4.09c.03-.1.06-.21.08-.31.07-.28.14-.57.2-.85.03-.16.07-.32.09-.48.22-1.19.28-2.33 0-3.15-.9-2.67 5.68-.82 5.68-.82s-1.28 7.07 0 9.46c1.28 2.38-7.48.24-7.48.24z"/><path d="M298.29 164.27c.73-.92-4.42-1.24-4.42-1.24l-6.01-.52s-4.13.69-7.34 1.8-7.41 7.19-7.41 7.19 5.8 13.61 6.91 17.52c1.11 3.91-1.26 13.85-1.26 13.85 6.95 3.78 20.67.4 20.67.4s-5.47-33.58-1.14-39z" fill="#eddad3"/><path d="M300.74 180.68s-.27.57-1.01 2.82c-.76-6.31-.36-9.59-.36-9.59.08 3.36 1.37 6.77 1.37 6.77z" fill="#d0beb8"/><path class="st34" d="M294.2 162.83l-7.08 5.77.73-6.08c.01 0 4.13-.89 6.35.31z"/><path class="st43" d="M298.87 187.13c-.97 4.04 3.95 16.67 3.95 16.67l-8.31 2.81c-1.03.35-2.12-.3-2.31-1.37-.94-5.25-3.37-19.34-3.64-25.59-.34-7.76 5.31-16.92 5.31-16.92 10.04 1.72 7.29 16.92 7.29 16.92s-.36.96-.85 2.45c-.12.38-.25.79-.39 1.22-.35 1.13-.72 2.44-1.05 3.81zM287.15 162.85l.12-.33s-5.14.78-7.76 2.09c-2.61 1.31-7.62 8.05-7.62 8.05l6.54 8.64c.01 6.64-2.31 22.22-2.31 22.22l4.55 1.86c.71.29 1.49-.22 1.5-.99.07-4.74.29-18.79.41-24.27.14-6.64 4.87-17.38 4.87-17.38-.1.03-.2.07-.3.11z"/><path class="st34" d="M277.82 193.98s4.93.19 5.7 0c.77-.19 5.89-2.41 6.2-4.61.31-2.19-11.9 1.97-11.9 1.97v2.64z"/><path fill="#717171" d="M293.13 187.13l-20.02-2.34 9.04 7.36z"/><path class="st45" d="M282.15 192.15l10.98-3.75v-1.27l-11.35 3.64z"/><path class="st46" d="M288.23 161.4l-3.81 6.03-1.84 1.16 4.29-6.01z"/><path class="st47" d="M284.42 167.43l2.71 1.16.73-6.07.37-1.12z"/><path class="st43" d="M278.42 191.16s-.21 2.55 0 3.08c0 0-12.35-1.23-13.5-2.96-1.15-1.73-1.11-3.82-1.11-3.82l14.61 3.7z"/><path class="st45" d="M282.15 192.15l-5.84-21.72-22.2-2.34 6.08 19.98z"/><path class="st43" d="M310.93 179.73c1.11-.92 1.77-1.26 3.11-2.41 2.09-1.8 4.76-4.07 4.76-4.07l2.54 3.73s-6.14 5.4-9.4 8.6c0 0-4.13 4.43-5.05 4.04-.92-.39-4.21-5.16-6.84-9.75s-3.8-7.51-3.94-9.51c-.13-2 6.48-2.96 6.48-2.96l5.18 11.31s.92 1.62 1.39 2.11c0-.02 1.16-.68 1.77-1.09z"/><path class="st34" d="M291.93 139.26c-2.31-.38-7.61.2-9.11 6.28 0 0 0 1.68.25 3.04.25 1.35-1.36 5.07-1.07 5.29.28.22 1.52.61 1.52.61s.88 4.36 2.36 4.5c1.48.13 7.2-.38 10.44-5.31 3.22-4.95 4.95-12.88-4.39-14.41z"/><path class="st36" d="M282.82 145.53s3.48 3.01 7.17 3.96c3.69.95 5.64 5.09 5.64 5.09s6.53-6.51 2.59-12.83c-3.94-6.31-15.4-3.5-15.4 3.78z"/><path class="st36" d="M290.67 149.7s3.86 10.13 3.41 12.57c0 0 1.91-.33 5.46.76 0 .01-1.72-18.09-8.87-13.33z"/><path class="st47" d="M289.17 167.61l-2.04.98 6.95-6.89z"/><path class="st46" d="M294.08 161.7l-4.91 5.91 2.69 2.4 2.89-7.08z"/><path d="M292.73 157.11c-.03.05-1.1 1.7-4.09 2.87.07-.28.14-.57.2-.85.03-.16.07-.32.09-.48.01 0 2.48-.6 3.8-1.54z" fill="#a77961"/><path d="M268.83 179.51c.62 1.16.61 2.38-.02 2.71-.63.34-1.64-.34-2.26-1.5-.62-1.16-.61-2.38.02-2.71.63-.33 1.64.34 2.26 1.5z" fill="#838383"/><g><path class="st43" d="M294.75 162.93s6.47-.88 8.35 5.89c0 .01-8.22-.88-8.35-5.89z"/></g></g><g><path d="M416.6 131.67h-70.26c-3.24 0-5.86-2.62-5.86-5.86v-83.5c0-3.23 2.62-5.86 5.86-5.86h70.26c3.23 0 5.86 2.62 5.86 5.86v83.49c0 3.24-2.63 5.87-5.86 5.87z" fill="#f5f6f6"/><path class="st51" d="M408.41 88.74c-3.48-1.65-7.51-.77-10.02 1.89-.61.64-1.12 1.39-1.52 2.24a8.64 8.64 0 00.16 7.73c.84 1.61 2.2 2.97 3.97 3.81.18.08.35.16.53.23.81.32 1.64.51 2.48.58 3.49.28 6.95-1.58 8.53-4.93 2.04-4.33.19-9.5-4.13-11.55zm2.17 10.62a6.508 6.508 0 01-11.64.24 6.504 6.504 0 011.02-7.47c1.88-2 4.9-2.65 7.51-1.42a6.497 6.497 0 013.11 8.65z"/><path class="st32" d="M398.95 99.59l-1.92 1.01a8.64 8.64 0 01-.16-7.73c.4-.84.92-1.59 1.52-2.24l1.58 1.49a6.46 6.46 0 00-1.14 1.68c-.91 1.91-.79 4.05.12 5.79z"/><path class="st28" d="M402.32 102.62l-.79 2.02a8.636 8.636 0 01-4.5-4.04l1.92-1.01a6.464 6.464 0 003.37 3.03z"/><path fill="#e3f3fc" d="M402.04 110.93h-16.18v-.32h15.86v-6.12h.32z"/><path class="st51" d="M350.52 107.26H365v1.93h-14.48zM385.86 107.26h8.52v1.93h-8.52zM347.24 44.63h6.93v1.48h-6.93zM376.13 50.21h10.75v1.48h-10.75zM362.23 50.21h6.56v1.48h-6.56zM347.24 50.21h13.01v1.48h-13.01zM356.28 44.63h10.27v1.48h-10.27zM370.85 50.21h2.82v1.48h-2.82zM379.22 44.71h7.67v1.48h-7.67zM389.62 50.21h6.54v1.48h-6.54zM369.08 44.71h8.13v1.48h-8.13z"/><g><path class="st21" d="M387.92 140.61h-12.9a3.91 3.91 0 01-3.91-3.91v-12.9a3.91 3.91 0 013.91-3.91h12.9a3.91 3.91 0 013.91 3.91v12.9c-.01 2.16-1.76 3.91-3.91 3.91z"/><path class="st53" d="M380.49 126.13h1.96v8.24h-1.96z"/><path transform="rotate(90 381.468 130.25)" class="st53" d="M380.49 126.13h1.96v8.24h-1.96z"/></g><g><g class="st54"><defs><path id="SVGID_4_" class="st54" d="M363.7 140.41l-27.51-70.62 46.4-19.64 27.5 70.61z"/></defs><clipPath id="SVGID_3_"><use xlink:href="#SVGID_4_" overflow="visible"/></clipPath><g clip-path="url(#SVGID_3_)"><path d="M370.28 92.99c.09 1.9.23 4.72.32 6.55.05 1.06-.81 2.26-1.93 3.38a.52.52 0 01.05-.03c.06-.02 7.87 6.66 10.04 8.53 1.96-1.11 8.82-4.98 9.35-5.21.02-.01.03-.01.03-.01-1.23-1.51-2.2-3.01-2.25-4.05-.08-1.55-.19-3.81-.27-5.62-.63 1.29-1.52 2.26-2.72 2.77-1.16.49-2.61.56-4.41.11l-.2-.03c-4.08-.37-6.54-2.85-8.01-6.39" fill="#d3d3d3"/><path class="st21" d="M369.65 64.97l-.12.06c-.65.36-.84 5.55-2.52 7.13 0 0-.03-.1-.09-.28-.01.1-.01.21-.02.31.7.02 1.26.22 1.26.22l2.06 10.77s-.22-.06-.56-.21c.66 1.22 1.29 2.19 1.71 2.33.09.03.21 0 .38-.07.26-.11.62-.32 1.04-.57.44-.25.95-.54 1.51-.77.91-.39 1.96-.65 3.04-.47 2.97.51 6.16 4.05 6.78 4.06.05 0 .11-.01.17-.04.39-.16.87-.86 1.34-1.74-.34.03-.55.02-.55.02l1.04-10.24s.65-.02 1.46.27c-.02-.12-.03-.24-.05-.35l-.06.25c-1.86-2.18-2.56-7.51-3.26-8.11-1.45-1.24-3.56.26-6.25.43-.32.02-1.94-.3-2.27-.44-2.57-1.1-4.72-3.12-6.04-2.56"/><path class="st21" d="M365.66 72.39c-.91.38-1.67 1.38-1.52 3.74.2 2.95 2.04 4.79 3.65 5.85-.17-1.04-.32-1.97-.43-2.72l.56.1c.49 1.09 1.13 2.46 1.75 3.61.35.14.56.21.56.21l-2.06-10.77s-.56-.2-1.26-.22c-.41-.02-.84.03-1.25.2M386.12 75.47l-1.04 10.24s.21.01.55-.02c.52-.96 1.03-2.13 1.42-3.08l.56.1c-.04.72-.1 1.62-.18 2.62.13-.04.26-.09.4-.15 1.41-.6 2.83-1.87 2.75-4.55-.1-3.23-1.74-4.44-3-4.89-.8-.29-1.46-.27-1.46-.27"/><path class="st57" d="M379.52 92.21c-.43.18-.92.26-1.48.16l-.4-.07c-2.52-.43-4.11-3.97-3.76-4.55.28-.47 1.77-1.99 2.9-2.46.25-.11.48-.16.68-.14v-.01l.02.01h.03l.01.02c1.09.26 3.49 3.17 3.89 3.87.32.55-.38 2.53-1.89 3.17m-12.17-12.95a179.632 179.632 0 001.79 9.98c.29 1.34.66 2.6 1.13 3.75 1.46 3.54 3.93 6.02 7.99 6.38l.2.03c1.81.45 3.26.38 4.41-.11 1.21-.51 2.09-1.48 2.72-2.77.58-1.18.94-2.65 1.15-4.29.3-2.32.52-4.84.68-6.91.08-1 .13-1.9.18-2.62l-.56-.1c-.39.94-.91 2.12-1.42 3.08-.48.88-.96 1.58-1.34 1.74-.06.02-.12.04-.17.04-.62-.01-3.81-3.55-6.78-4.06-1.08-.18-2.13.09-3.04.47-.56.24-1.08.52-1.51.77-.43.25-.78.46-1.04.57-.17.07-.29.1-.38.07-.42-.14-1.06-1.11-1.71-2.33-.62-1.15-1.26-2.52-1.75-3.61l-.55-.08"/><path class="st21" d="M376.78 85.29c-1.13.48-2.62 1.99-2.9 2.46-.35.58 1.24 4.12 3.76 4.55l.4.07c.56.09 1.05.02 1.48-.16 1.52-.64 2.21-2.63 1.9-3.18-.4-.7-2.8-3.62-3.89-3.87l-.01-.02h-.03l-.02-.01v.01c-.21-.02-.44.04-.69.15"/><path class="st57" d="M367.75 56.43c-.09.04-.18.08-.24.12-1.64.99-2.16 2.95-2.03 5.61.26 5.48 1.15 8.77 1.44 9.71.06.19.09.28.09.28 1.68-1.58 1.87-6.76 2.52-7.13l.12-.06c1.32-.56 3.47 1.46 6.03 2.55.33.14 1.95.46 2.27.44 2.69-.17 4.8-1.67 6.25-.43.7.6 1.4 5.93 3.26 8.11l.06-.25c.2-.85.78-3.89.52-9.38-.13-2.66-.85-4.84-2.62-6.4-1.13-1.01-5.31-2.9-9.35-3.57-3.58-.58-7.06-.13-8.32.4M356.77 107.41c-2.12.9-3.4 3.36-3.25 6.36l.03.58 25.01 4.26 1.11.18 25.02 4.27-.03-.58c-.15-3.17-1.87-6.29-4.33-7.85-1.26-.81-2.64-1.66-3.86-2.38-5.81-3.38-8.33-6.04-8.33-6.04s-.01 0-.03.01c-.53.22-7.38 4.09-9.35 5.21-2.18-1.87-9.99-8.55-10.04-8.53 0 0-.02.01-.05.03-.22.16-1.21.87-3.18 1.7-1.18.5-2.72 1.05-4.65 1.55-1.17.31-2.49.7-3.69 1.09-.13.04-.26.09-.38.14"/></g></g></g></g><g><linearGradient id="SVGID_5_" gradientUnits="userSpaceOnUse" x1="427.87" y1="32.566" x2="454.6" y2="32.566"><stop offset="0" stop-color="#f89e59"/><stop offset="1" stop-color="#ffd356"/></linearGradient><path fill="url(#SVGID_5_)" d="M454.14 41.78l-17.5-17.5-8.31 8.3-.46-.46 8.77-8.77 17.96 17.97z"/></g><g><path transform="rotate(54.275 435.823 233.353)" class="st22" d="M387.84 226.02h95.95v14.67h-95.95z"/><path transform="rotate(54.211 406.46 192.566)" fill="#2d3139" d="M404.15 186.97h4.61v11.14h-4.61z"/><path d="M406.78 179.62c-.17.16-.34.31-.51.46l6.26 6.16c.17-.15.34-.31.5-.47l-6.25-6.15zm-68.12-70.48c-.19.19-.37.38-.55.57-.77.8-1.51 1.62-2.21 2.47a51.157 51.157 0 00-5.34 7.55c-4.92 8.42-7.33 17.9-7.24 27.35 0 .37.01.74.01 1.1.04 1.45.14 2.91.31 4.36 1.3 11.77 6.51 23.18 15.61 32.14.15.15.3.3.46.44a53.01 53.01 0 0024.12 13.33c3.99.99 8.07 1.51 12.16 1.57 8.52.11 17.07-1.8 24.85-5.74 1.18-.6 2.34-1.24 3.48-1.93 2.03-1.23 4-2.61 5.88-4.12l.01-.01c.4-.33.8-.65 1.19-1a34.78 34.78 0 001.63-1.46c.37-.34.73-.69 1.09-1.04.22-.21.44-.43.65-.65 18.76-19.05 20.3-48.61 4.76-69.39-.3-.4-.6-.8-.92-1.2a65.39 65.39 0 00-2.04-2.41c-.76-.86-1.57-1.7-2.39-2.51-.7-.69-1.41-1.36-2.14-2-1.25-1.1-2.53-2.13-3.86-3.1-12.63-9.24-28.39-12.23-43.03-8.99-2.92.64-5.8 1.53-8.6 2.67-.18.07-.36.15-.53.22-.17.06-.34.14-.5.22-.98.41-1.95.87-2.9 1.35-2.46 1.24-4.85 2.7-7.14 4.35-.61.43-1.2.88-1.8 1.35-.09.08-.19.16-.3.25-.01 0-.02.01-.03.02-.05.04-.1.08-.14.12a1.1 1.1 0 00-.18.14l-.04.04a.55.55 0 00-.09.07c-.04.03-.09.07-.13.11-.11.08-.21.17-.31.26-.63.53-1.26 1.07-1.86 1.64-.08.07-.17.15-.25.23l-.4.37c-.43.4-.86.83-1.29 1.26zm-3.13 20.24l.22-.51c.16-.38.33-.75.51-1.14l.43-.9c.11-.22.22-.45.33-.67.01-.02.02-.03.02-.04.02-.04.04-.08.07-.12.19-.37.39-.73.59-1.1l.24-.42c.21-.39.45-.77.68-1.15.02-.03.04-.08.07-.12.22-.35.44-.69.67-1.04.09-.15.18-.29.28-.43.29-.43.58-.85.89-1.27.53-.74 1.09-1.46 1.67-2.17.19-.24.4-.48.6-.72 0 0 .01.01.01-.01.07-.07.13-.15.2-.22.28-.32.56-.64.85-.95l.09-.09a29.068 29.068 0 01.97-1.02c.24-.25.49-.49.74-.72.99-.97 2.01-1.88 3.08-2.72.1-.1.22-.19.33-.27.01-.01.01-.01.02-.01 0-.01.01-.01.01-.01 0-.01.01-.02.02-.02.02-.02.04-.04.07-.06l.01-.01c.01-.01.02-.02.03-.02a44.301 44.301 0 0117.53-8.36c7.3-1.67 14.95-1.48 22.17.57 1.92.54 3.8 1.21 5.63 2.01.58.25 1.17.52 1.74.81a44 44 0 019.11 5.92c.91.76 1.8 1.56 2.65 2.4.26.25.51.5.76.77.29.3.57.6.86.9.2.22.4.45.6.67.06.06.11.12.16.18.33.37.66.76.97 1.15l.24.3c.12.16.25.32.37.48.15.18.28.35.42.54.31.4.6.81.9 1.22.03.04.06.08.08.11.23.32.45.65.66.98.01.02.03.04.04.06.09.13.18.28.27.42.2.31.39.62.58.94.09.13.17.27.25.41.21.37.43.73.63 1.11.2.35.39.72.58 1.08.09.17.18.34.25.5.37.73.71 1.47 1.03 2.21.09.2.18.41.26.61.13.32.26.63.38.95.1.26.2.51.29.77.15.38.28.76.41 1.14.15.43.29.87.41 1.3.15.49.29.98.42 1.48.28 1.02.51 2.05.7 3.08.09.44.16.88.23 1.33.1.55.18 1.1.24 1.65.06.49.11.98.16 1.48.05.51.09 1.01.11 1.53.66 12.11-3.59 24.44-12.76 33.76-.22.22-.43.44-.65.65-.36.35-.72.7-1.1 1.03-.17.16-.34.31-.51.46-.38.33-.76.66-1.15.97-1.1.91-2.23 1.76-3.39 2.54a46.23 46.23 0 01-3.91 2.37c-1.06.57-2.14 1.1-3.24 1.57a44.644 44.644 0 01-23.34 3.39c-1.87-.23-3.73-.58-5.56-1.04-7.22-1.83-14.07-5.5-19.83-11-.16-.14-.31-.29-.46-.44a44.506 44.506 0 01-11.77-20.11 44.807 44.807 0 01.67-25.66l.26-.76c.1-.3.21-.59.32-.89l.11-.29c.1-.26.2-.51.31-.77l.21-.55z" fill="#3f4550"/><circle transform="rotate(-17.944 376.674 146.604)" cx="376.72" cy="146.62" opacity=".1" fill="#b9b9b9" r="44.48"/><path d="M421.29 144.16s-36.24-45.76-87.36-10.29a44.377 44.377 0 0110.98-18.57c17.3-17.57 45.56-17.79 63.13-.49a44.45 44.45 0 0113.25 29.35z" opacity=".3" fill="#869ac2"/></g></g><g class="st17"><path class="st16" d="M540.52 200.07v65.25h-65.25v-65.25h65.25m4-4h-73.25v73.25h73.25v-73.25z"/></g></svg>